<svg version="1.1" id="Ebene_1" xmlns="http://www.w3.org/2000/svg" xmlns:xlink="http://www.w3.org/1999/xlink"
	viewBox="0 0 90 90" style="enable-background:new 0 0 90 90;" xml:space="preserve">
<style type="text/css">
	.st0{enable-background:new    ;}
	.st1{fill:#D0CFCE;}
	.st2{fill:none;stroke:#000000;stroke-width:2.5;}
</style>
<g>
	<g class="st0">
		<path class="st1" d="M32.1,35.7c0-1.6,0.5-3.3,1.6-5c1.1-1.7,2.6-3.1,4.6-4.2c2-1.1,4.4-1.7,7.1-1.7c2.5,0,4.7,0.5,6.6,1.4
			c1.9,0.9,3.4,2.2,4.4,3.8s1.6,3.3,1.6,5.2c0,1.5-0.3,2.8-0.9,3.9c-0.6,1.1-1.3,2.1-2.1,2.9c-0.8,0.8-2.3,2.2-4.4,4.1
			c-0.6,0.5-1.1,1-1.4,1.4c-0.4,0.4-0.6,0.8-0.8,1.1s-0.3,0.7-0.4,1c-0.1,0.3-0.2,0.9-0.4,1.8c-0.3,1.8-1.4,2.7-3.1,2.7
			c-0.9,0-1.7-0.3-2.3-0.9c-0.6-0.6-0.9-1.5-0.9-2.6c0-1.5,0.2-2.7,0.7-3.8c0.4-1.1,1-2,1.8-2.8s1.7-1.8,3-2.9
			c1.1-1,1.9-1.7,2.4-2.2c0.5-0.5,0.9-1,1.2-1.6c0.3-0.6,0.5-1.3,0.5-2c0-1.4-0.5-2.5-1.5-3.5c-1-1-2.4-1.4-4-1.4
			c-1.9,0-3.3,0.5-4.2,1.4c-0.9,1-1.7,2.4-2.3,4.2c-0.6,2-1.7,2.9-3.3,2.9c-1,0-1.8-0.3-2.4-1C32.5,37.3,32.1,36.5,32.1,35.7z
			 M44.8,64.1c-1.1,0-2-0.3-2.8-1c-0.8-0.7-1.2-1.6-1.2-2.9c0-1.1,0.4-2,1.1-2.7c0.8-0.7,1.7-1.1,2.8-1.1c1.1,0,2,0.4,2.7,1.1
			c0.7,0.7,1.1,1.7,1.1,2.7c0,1.2-0.4,2.2-1.2,2.9C46.7,63.8,45.8,64.1,44.8,64.1z"/>
	</g>
	<g class="st0">
		<path class="st2" d="M32.1,35.7c0-1.6,0.5-3.3,1.6-5c1.1-1.7,2.6-3.1,4.6-4.2c2-1.1,4.4-1.7,7.1-1.7c2.5,0,4.7,0.5,6.6,1.4
			c1.9,0.9,3.4,2.2,4.4,3.8s1.6,3.3,1.6,5.2c0,1.5-0.3,2.8-0.9,3.9c-0.6,1.1-1.3,2.1-2.1,2.9c-0.8,0.8-2.3,2.2-4.4,4.1
			c-0.6,0.5-1.1,1-1.4,1.4c-0.4,0.4-0.6,0.8-0.8,1.1s-0.3,0.7-0.4,1c-0.1,0.3-0.2,0.9-0.4,1.8c-0.3,1.8-1.4,2.7-3.1,2.7
			c-0.9,0-1.7-0.3-2.3-0.9c-0.6-0.6-0.9-1.5-0.9-2.6c0-1.5,0.2-2.7,0.7-3.8c0.4-1.1,1-2,1.8-2.8s1.7-1.8,3-2.9
			c1.1-1,1.9-1.7,2.4-2.2c0.5-0.5,0.9-1,1.2-1.6c0.3-0.6,0.5-1.3,0.5-2c0-1.4-0.5-2.5-1.5-3.5c-1-1-2.4-1.4-4-1.4
			c-1.9,0-3.3,0.5-4.2,1.4c-0.9,1-1.7,2.4-2.3,4.2c-0.6,2-1.7,2.9-3.3,2.9c-1,0-1.8-0.3-2.4-1C32.5,37.3,32.1,36.5,32.1,35.7z
			 M44.8,64.1c-1.1,0-2-0.3-2.8-1c-0.8-0.7-1.2-1.6-1.2-2.9c0-1.1,0.4-2,1.1-2.7c0.8-0.7,1.7-1.1,2.8-1.1c1.1,0,2,0.4,2.7,1.1
			c0.7,0.7,1.1,1.7,1.1,2.7c0,1.2-0.4,2.2-1.2,2.9C46.7,63.8,45.8,64.1,44.8,64.1z"/>
	</g>
	<g class="st0">
		<path class="st1" d="M78.1,44c0,18.3-15,32.7-33.1,32.7S11.9,62.3,11.9,44c0-18.2,15-32.9,33.1-32.9S78.1,25.9,78.1,44z M19,44
			c0,14.3,11.6,26.2,26,26.2c14.4,0,26-11.9,26-26.2c0-14.4-11.4-26.2-26-26.2S19,29.6,19,44z"/>
	</g>
	<g class="st0">
		<path class="st2" d="M78.1,44c0,18.3-15,32.7-33.1,32.7S11.9,62.3,11.9,44c0-18.2,15-32.9,33.1-32.9S78.1,25.9,78.1,44z M19,44
			c0,14.3,11.6,26.2,26,26.2c14.4,0,26-11.9,26-26.2c0-14.4-11.4-26.2-26-26.2S19,29.6,19,44z"/>
	</g>
</g>
</svg>
