<svg viewBox="0 0 57 57" fill="none" xmlns="http://www.w3.org/2000/svg">
<path d="M26.577 25.2492C26.625 25.3452 26.649 25.4533 26.649 25.5733C26.649 25.7894 26.565 25.9815 26.3969 26.1496C26.2528 26.2937 26.0727 26.3657 25.8566 26.3657H17.6807C17.3446 26.3657 17.0324 26.2817 16.7443 26.1136C16.4802 25.9455 16.2881 25.7294 16.168 25.4653L12.9985 18.3339H9.97309V25.3933C9.97309 25.6574 9.87705 25.8855 9.68496 26.0776C9.49287 26.2697 9.26476 26.3657 9.00063 26.3657H1.22094C0.956818 26.3657 0.72871 26.2697 0.536619 26.0776C0.344528 25.8855 0.248483 25.6574 0.248483 25.3933V2.12623C0.248483 1.8621 0.344528 1.63399 0.536619 1.4419C0.72871 1.24981 0.956818 1.15377 1.22094 1.15377H15.2316C17.3926 1.15377 19.2775 1.50193 20.8863 2.19826C22.519 2.89459 23.7676 3.90307 24.632 5.2237C25.4965 6.54432 25.9287 8.09306 25.9287 9.8699C25.9287 13.1354 24.6681 15.5006 22.1469 16.9653L26.577 25.2492ZM14.4752 11.6708C15.0035 11.6708 15.4117 11.5027 15.6998 11.1665C15.9879 10.8063 16.132 10.3621 16.132 9.83388C16.132 9.30563 15.9879 8.84942 15.6998 8.46523C15.4357 8.05704 15.0275 7.85294 14.4752 7.85294H9.97309V11.6708H14.4752ZM56.277 15.9568C56.277 19.6305 55.0524 22.3438 52.6032 24.0966C50.1781 25.8495 46.9366 26.7259 42.8786 26.7259C38.8207 26.7259 35.5672 25.8495 33.118 24.0966C30.6929 22.3438 29.4803 19.6065 29.4803 15.8848V11.6347C29.4803 9.18558 30.0566 7.15661 31.2091 5.54785C32.3857 3.91508 33.9824 2.71451 35.9994 1.94614C38.0163 1.17778 40.3094 0.793596 42.8786 0.793596C45.4479 0.793596 47.7289 1.17778 49.7219 1.94614C51.7388 2.71451 53.3356 3.90307 54.5122 5.51183C55.6887 7.1206 56.277 9.13755 56.277 11.5627V15.9568ZM39.2049 16.6411C39.2049 17.6256 39.529 18.3819 40.1774 18.9102C40.8497 19.4384 41.7501 19.7026 42.8786 19.7026C44.0072 19.7026 44.8956 19.4384 45.5439 18.9102C46.2162 18.3579 46.5524 17.5896 46.5524 16.6051V10.9144C46.5524 9.92993 46.2162 9.17357 45.5439 8.64532C44.8956 8.09306 44.0072 7.81693 42.8786 7.81693C41.7501 7.81693 40.8497 8.08105 40.1774 8.6093C39.529 9.13755 39.2049 9.89391 39.2049 10.8784V16.6411ZM22.5791 43.2195C23.5155 43.5076 24.3199 44.1439 24.9922 45.1284C25.6645 46.0888 26.0007 47.1934 26.0007 48.442C26.0007 51.1072 25.1363 53.1002 23.4075 54.4208C21.6786 55.7174 19.1575 56.3657 15.8439 56.3657H1.00484C0.740716 56.3657 0.512608 56.2697 0.320517 56.0776C0.128425 55.8855 0.0323799 55.6574 0.0323799 55.3933V32.1262C0.0323799 31.8621 0.128425 31.634 0.320517 31.4419C0.512608 31.2498 0.740716 31.1538 1.00484 31.1538H15.4837C18.8933 31.1538 21.4025 31.7781 23.0113 33.0267C24.6441 34.2512 25.4604 36.1121 25.4604 38.6093V38.7174C25.4604 39.8699 25.1483 40.8544 24.524 41.6708C23.8997 42.4871 23.2514 43.0034 22.5791 43.2195ZM15.6998 38.9335C15.6998 38.5013 15.5677 38.1291 15.3036 37.8169C15.0635 37.5048 14.7033 37.3487 14.2231 37.3487H9.39682V40.6263H14.2231C14.7033 40.6263 15.0635 40.4582 15.3036 40.122C15.5677 39.7618 15.6998 39.3657 15.6998 38.9335ZM14.6193 50.1708C15.1716 50.1708 15.5798 49.9907 15.8439 49.6305C16.132 49.2463 16.2761 48.8261 16.2761 48.3699V48.3339C16.2761 47.8777 16.12 47.4815 15.8079 47.1454C15.5197 46.8092 15.1235 46.6411 14.6193 46.6411H9.39682V50.1708H14.6193ZM56.277 45.9568C56.277 49.6305 55.0524 52.3438 52.6032 54.0966C50.1781 55.8495 46.9366 56.7259 42.8786 56.7259C38.8207 56.7259 35.5672 55.8495 33.118 54.0966C30.6929 52.3438 29.4803 49.6065 29.4803 45.8848V41.6347C29.4803 39.1856 30.0566 37.1566 31.2091 35.5479C32.3857 33.9151 33.9824 32.7145 35.9994 31.9461C38.0163 31.1778 40.3094 30.7936 42.8786 30.7936C45.4479 30.7936 47.7289 31.1778 49.7219 31.9461C51.7388 32.7145 53.3356 33.9031 54.5122 35.5118C55.6887 37.1206 56.277 39.1376 56.277 41.5627V45.9568ZM39.2049 46.6411C39.2049 47.6256 39.529 48.3819 40.1774 48.9102C40.8497 49.4384 41.7501 49.7026 42.8786 49.7026C44.0072 49.7026 44.8956 49.4384 45.5439 48.9102C46.2162 48.3579 46.5524 47.5896 46.5524 46.6051V40.9144C46.5524 39.9299 46.2162 39.1736 45.5439 38.6453C44.8956 38.0931 44.0072 37.8169 42.8786 37.8169C41.7501 37.8169 40.8497 38.0811 40.1774 38.6093C39.529 39.1376 39.2049 39.8939 39.2049 40.8784V46.6411Z" fill="#D0CFCE"/>
<path d="M26.577 25.2492L28.2609 24.4072L28.2494 24.3841L28.2372 24.3613L26.577 25.2492ZM26.3969 26.1496L25.0656 24.8183L25.0656 24.8183L26.3969 26.1496ZM16.7443 26.1136L15.7335 27.702L15.7642 27.7215L15.7957 27.7398L16.7443 26.1136ZM16.168 25.4653L14.4476 26.2299L14.4508 26.2372L14.4541 26.2444L16.168 25.4653ZM12.9985 18.3339L14.719 17.5693L14.2221 16.4512H12.9985V18.3339ZM9.97309 18.3339V16.4512H8.09038V18.3339H9.97309ZM9.68496 26.0776L8.35368 24.7463L8.35368 24.7463L9.68496 26.0776ZM20.8863 2.19826L20.1384 3.92609L20.1477 3.93006L20.8863 2.19826ZM24.632 5.2237L23.0568 6.25478L23.0568 6.25478L24.632 5.2237ZM22.1469 16.9653L21.2011 15.3373L19.6295 16.2504L20.4867 17.8531L22.1469 16.9653ZM15.6998 11.1665L17.1293 12.3918L17.15 12.3675L17.17 12.3426L15.6998 11.1665ZM15.6998 8.46523L14.1191 9.48802L14.1545 9.54273L14.1936 9.59486L15.6998 8.46523ZM9.97309 7.85294V5.97023H8.09038V7.85294H9.97309ZM9.97309 11.6708H8.09038V13.5535H9.97309V11.6708ZM24.893 26.0912C24.7956 25.8963 24.7663 25.7107 24.7663 25.5733H28.5317C28.5317 25.1959 28.4544 24.7942 28.2609 24.4072L24.893 26.0912ZM24.7663 25.5733C24.7663 25.4298 24.7958 25.2741 24.8611 25.1249C24.9249 24.979 25.0057 24.8783 25.0656 24.8183L27.7282 27.4809C28.2105 26.9985 28.5317 26.3411 28.5317 25.5733H24.7663ZM25.0656 24.8183C25.1646 24.7194 25.296 24.6271 25.4545 24.5636C25.6109 24.5011 25.7525 24.483 25.8566 24.483V28.2484C26.5384 28.2484 27.2079 28.0011 27.7282 27.4809L25.0656 24.8183ZM25.8566 24.483H17.6807V28.2484H25.8566V24.483ZM17.6807 24.483C17.6753 24.483 17.6737 24.4827 17.6752 24.4829C17.6767 24.4831 17.6798 24.4836 17.684 24.4847C17.6881 24.4858 17.6916 24.4871 17.694 24.4881C17.6963 24.489 17.696 24.4891 17.6929 24.4874L15.7957 27.7398C16.3741 28.0773 17.014 28.2484 17.6807 28.2484V24.483ZM17.7551 24.5252C17.758 24.5271 17.7803 24.5421 17.8093 24.5747C17.839 24.6081 17.8642 24.6472 17.882 24.6862L14.4541 26.2444C14.7371 26.8671 15.187 27.3542 15.7335 27.702L17.7551 24.5252ZM17.8885 24.7007L14.719 17.5693L11.2781 19.0986L14.4476 26.2299L17.8885 24.7007ZM12.9985 16.4512H9.97309V20.2166H12.9985V16.4512ZM8.09038 18.3339V25.3933H11.8558V18.3339H8.09038ZM8.09038 25.3933C8.09038 25.2915 8.11012 25.1643 8.16589 25.0318C8.22121 24.9004 8.29438 24.8056 8.35368 24.7463L11.0162 27.4089C11.5501 26.875 11.8558 26.1724 11.8558 25.3933H8.09038ZM8.35368 24.7463C8.41298 24.687 8.50781 24.6138 8.63921 24.5585C8.77166 24.5027 8.89884 24.483 9.00063 24.483V28.2484C9.7798 28.2484 10.4823 27.9428 11.0162 27.4089L8.35368 24.7463ZM9.00063 24.483H1.22094V28.2484H9.00063V24.483ZM1.22094 24.483C1.32274 24.483 1.44992 24.5027 1.58237 24.5585C1.71376 24.6138 1.80859 24.687 1.8679 24.7463L-0.794658 27.4089C-0.260757 27.9428 0.441781 28.2484 1.22094 28.2484V24.483ZM1.8679 24.7463C1.9272 24.8056 2.00036 24.9004 2.05569 25.0318C2.11146 25.1643 2.13119 25.2915 2.13119 25.3933H-1.63423C-1.63423 26.1724 -1.32856 26.875 -0.794658 27.4089L1.8679 24.7463ZM2.13119 25.3933V2.12623H-1.63423V25.3933H2.13119ZM2.13119 2.12623C2.13119 2.22802 2.11146 2.35521 2.05569 2.48765C2.00036 2.61905 1.9272 2.71388 1.8679 2.77318L-0.79466 0.110627C-1.32856 0.644527 -1.63423 1.34706 -1.63423 2.12623H2.13119ZM1.8679 2.77318C1.80859 2.83248 1.71377 2.90565 1.58237 2.96097C1.44992 3.01674 1.32274 3.03648 1.22094 3.03648V-0.728945C0.44178 -0.728945 -0.260759 -0.423275 -0.79466 0.110627L1.8679 2.77318ZM1.22094 3.03648H15.2316V-0.728945H1.22094V3.03648ZM15.2316 3.03648C17.1936 3.03648 18.8139 3.35276 20.1384 3.92607L21.6341 0.470458C19.7411 -0.348897 17.5916 -0.728945 15.2316 -0.728945V3.03648ZM20.1477 3.93006C21.4826 4.49936 22.4207 5.28304 23.0568 6.25478L26.2073 4.19261C25.1145 2.5231 23.5555 1.28982 21.6248 0.466464L20.1477 3.93006ZM23.0568 6.25478C23.696 7.23143 24.0459 8.41178 24.0459 9.8699H27.8114C27.8114 7.77433 27.2969 5.85722 26.2073 4.19261L23.0568 6.25478ZM24.0459 9.8699C24.0459 12.5616 23.0631 14.2556 21.2011 15.3373L23.0926 18.5932C26.2731 16.7455 27.8114 13.7093 27.8114 9.8699H24.0459ZM20.4867 17.8531L24.9168 26.137L28.2372 24.3613L23.8071 16.0774L20.4867 17.8531ZM14.4752 13.5535C15.4364 13.5535 16.4139 13.2264 17.1293 12.3918L14.2704 9.94126C14.2917 9.91637 14.3207 9.88853 14.357 9.86223C14.3933 9.83592 14.4293 9.81673 14.4607 9.80379C14.524 9.77772 14.5408 9.78804 14.4752 9.78804V13.5535ZM17.17 12.3426C17.7633 11.601 18.0147 10.7243 18.0147 9.83388H14.2493C14.2493 9.92628 14.2369 9.97071 14.2331 9.98241C14.2303 9.9911 14.23 9.99001 14.2297 9.9904L17.17 12.3426ZM18.0147 9.83388C18.0147 8.94127 17.7631 8.07848 17.206 7.33561L14.1936 9.59486C14.2128 9.62035 14.2493 9.67 14.2493 9.83388H18.0147ZM17.2805 7.44245C16.6174 6.41772 15.5641 5.97023 14.4752 5.97023V9.73566C14.5197 9.73566 14.4602 9.74328 14.3536 9.68997C14.237 9.63169 14.1574 9.54719 14.1191 9.48802L17.2805 7.44245ZM14.4752 5.97023H9.97309V9.73566H14.4752V5.97023ZM8.09038 7.85294V11.6708H11.8558V7.85294H8.09038ZM9.97309 13.5535H14.4752V9.78804H9.97309V13.5535ZM52.6032 24.0966L51.5075 22.5656L51.5004 22.5708L52.6032 24.0966ZM33.118 24.0966L32.0151 25.6225L32.0223 25.6277L33.118 24.0966ZM31.2091 5.54785L29.6816 4.44718L29.6786 4.45139L31.2091 5.54785ZM35.9994 1.94614L35.3291 0.186772L35.9994 1.94614ZM49.7219 1.94614L49.0446 3.70283L49.0516 3.70551L49.7219 1.94614ZM54.5121 5.51183L52.9925 6.62323L54.5121 5.51183ZM40.1774 18.9102L38.9881 20.3697L39.001 20.3803L39.0142 20.3906L40.1774 18.9102ZM45.5439 18.9102L46.7332 20.3697L46.7389 20.365L45.5439 18.9102ZM45.5439 8.64532L44.323 10.0785L44.3514 10.1027L44.3807 10.1257L45.5439 8.64532ZM40.1774 8.6093L39.0142 7.12889L39.001 7.13921L38.9881 7.14976L40.1774 8.6093ZM54.3943 15.9568C54.3943 19.1737 53.3518 21.2457 51.5075 22.5656L53.699 25.6277C56.753 23.442 58.1597 20.0874 58.1597 15.9568H54.3943ZM51.5004 22.5708C49.4927 24.0218 46.6792 24.8432 42.8786 24.8432V28.6086C47.1939 28.6086 50.8634 27.6771 53.7061 25.6225L51.5004 22.5708ZM42.8786 24.8432C39.0794 24.8432 36.2491 24.0223 34.2137 22.5656L32.0223 25.6277C34.8852 27.6766 38.562 28.6086 42.8786 28.6086V24.8432ZM34.2209 22.5708C32.4053 21.2585 31.363 19.167 31.363 15.8848H27.5976C27.5976 20.046 28.9804 23.4291 32.0151 25.6225L34.2209 22.5708ZM31.363 15.8848V11.6347H27.5976V15.8848H31.363ZM31.363 11.6347C31.363 9.48424 31.8657 7.86417 32.7396 6.64431L29.6786 4.45139C28.2475 6.44906 27.5976 8.88691 27.5976 11.6347H31.363ZM32.7366 6.64852C33.6821 5.33628 34.9705 4.35278 36.6696 3.70551L35.3291 0.186772C32.9943 1.07623 31.0892 2.49387 29.6816 4.44718L32.7366 6.64852ZM36.6696 3.70551C38.436 3.03259 40.4959 2.67631 42.8786 2.67631V-1.08912C40.123 -1.08912 37.5966 -0.677034 35.3291 0.186772L36.6696 3.70551ZM42.8786 2.67631C45.262 2.67631 47.3067 3.03278 49.0446 3.70282L50.3992 0.189468C48.1512 -0.67722 45.6337 -1.08912 42.8786 -1.08912V2.67631ZM49.0516 3.70551C50.7582 4.35564 52.0484 5.33234 52.9925 6.62323L56.0318 4.40043C54.6228 2.4738 52.7195 1.07338 50.3921 0.186772L49.0516 3.70551ZM52.9925 6.62323C53.8858 7.84472 54.3943 9.44872 54.3943 11.5627H58.1597C58.1597 8.82638 57.4916 6.39648 56.0318 4.40043L52.9925 6.62323ZM54.3943 11.5627V15.9568H58.1597V11.5627H54.3943ZM37.3222 16.6411C37.3222 18.0798 37.8211 19.4189 38.9881 20.3697L41.3666 17.4506C41.237 17.345 41.0876 17.1713 41.0876 16.6411H37.3222ZM39.0142 20.3906C40.1108 21.2523 41.4635 21.5853 42.8786 21.5853V17.8199C42.0367 17.8199 41.5885 17.6246 41.3405 17.4298L39.0142 20.3906ZM42.8786 21.5853C44.2892 21.5853 45.6479 21.254 46.7332 20.3697L44.3546 17.4506C44.1433 17.6228 43.7252 17.8199 42.8786 17.8199V21.5853ZM46.7389 20.365C47.9072 19.4053 48.4351 18.0695 48.4351 16.6051H44.6697C44.6697 17.1096 44.5252 17.3105 44.3489 17.4554L46.7389 20.365ZM48.4351 16.6051V10.9144H44.6697V16.6051H48.4351ZM48.4351 10.9144C48.4351 9.45096 47.9061 8.10696 46.7071 7.16491L44.3807 10.1257C44.5264 10.2402 44.6697 10.4089 44.6697 10.9144H48.4351ZM46.7648 7.21212C45.6785 6.28675 44.3075 5.93421 42.8786 5.93421V9.69964C43.7069 9.69964 44.1127 9.89937 44.323 10.0785L46.7648 7.21212ZM42.8786 5.93421C41.4635 5.93421 40.1108 6.26723 39.0142 7.12889L41.3405 10.0897C41.5885 9.89488 42.0367 9.69964 42.8786 9.69964V5.93421ZM38.9881 7.14976C37.8211 8.10063 37.3222 9.43966 37.3222 10.8784H41.0876C41.0876 10.3482 41.237 10.1745 41.3666 10.0688L38.9881 7.14976ZM37.3222 10.8784V16.6411H41.0876V10.8784H37.3222ZM22.5791 43.2195L22.0029 41.4271L16.3046 43.2587L22.0254 45.0189L22.5791 43.2195ZM24.9922 45.1284L23.4375 46.1902L23.4436 46.1992L23.4498 46.2081L24.9922 45.1284ZM23.4075 54.4208L24.5371 55.927L24.5437 55.922L24.5503 55.9169L23.4075 54.4208ZM23.0113 33.0267L21.8569 34.514L21.8692 34.5235L21.8817 34.5328L23.0113 33.0267ZM24.524 41.6708L26.0195 42.8144H26.0195L24.524 41.6708ZM15.3036 37.8169L13.8113 38.9648L13.8381 38.9996L13.8664 39.0331L15.3036 37.8169ZM9.39682 37.3487V35.466H7.51411V37.3487H9.39682ZM9.39682 40.6263H7.51411V42.509H9.39682V40.6263ZM15.3036 40.122L13.7854 39.0086L13.7784 39.0181L13.7716 39.0277L15.3036 40.122ZM15.8439 49.6305L14.3377 48.5009L14.3316 48.509L14.3257 48.5172L15.8439 49.6305ZM15.8079 47.1454L14.3784 48.3706L14.4028 48.399L14.4282 48.4264L15.8079 47.1454ZM9.39682 46.6411V44.7584H7.51411V46.6411H9.39682ZM9.39682 50.1708H7.51411V52.0535H9.39682V50.1708ZM22.0254 45.0189C22.4716 45.1562 22.9519 45.4791 23.4375 46.1902L26.547 44.0666C25.6879 42.8087 24.5595 41.859 23.1327 41.42L22.0254 45.0189ZM23.4498 46.2081C23.8859 46.831 24.118 47.5531 24.118 48.442H27.8834C27.8834 46.8336 27.4432 45.3467 26.5346 44.0487L23.4498 46.2081ZM24.118 48.442C24.118 50.6675 23.4216 52.0409 22.2646 52.9247L24.5503 55.9169C26.851 54.1595 27.8834 51.547 27.8834 48.442H24.118ZM22.2778 52.9146C21.0075 53.8674 18.9548 54.483 15.8439 54.483V58.2484C19.3601 58.2484 22.3498 57.5675 24.5371 55.927L22.2778 52.9146ZM15.8439 54.483H1.00484V58.2484H15.8439V54.483ZM1.00484 54.483C1.10664 54.483 1.23382 54.5028 1.36627 54.5585C1.49766 54.6138 1.59249 54.687 1.65179 54.7463L-1.01076 57.4089C-0.47686 57.9428 0.225678 58.2484 1.00484 58.2484V54.483ZM1.65179 54.7463C1.7111 54.8056 1.78426 54.9004 1.83959 55.0318C1.89535 55.1643 1.91509 55.2915 1.91509 55.3933H-1.85033C-1.85033 56.1724 -1.54466 56.875 -1.01076 57.4089L1.65179 54.7463ZM1.91509 55.3933V32.1262H-1.85033V55.3933H1.91509ZM1.91509 32.1262C1.91509 32.228 1.89535 32.3552 1.83959 32.4877C1.78426 32.619 1.7111 32.7139 1.6518 32.7732L-1.01076 30.1106C-1.54466 30.6445 -1.85033 31.3471 -1.85033 32.1262H1.91509ZM1.6518 32.7732C1.59249 32.8325 1.49766 32.9056 1.36627 32.961C1.23382 33.0167 1.10664 33.0365 1.00484 33.0365V29.2711C0.225677 29.2711 -0.476862 29.5767 -1.01076 30.1106L1.6518 32.7732ZM1.00484 33.0365H15.4837V29.2711H1.00484V33.0365ZM15.4837 33.0365C18.7324 33.0365 20.7361 33.644 21.8569 34.514L24.1656 31.5393C22.069 29.9121 19.0543 29.2711 15.4837 29.2711V33.0365ZM21.8817 34.5328C22.9333 35.3216 23.5777 36.5567 23.5777 38.6093H27.3431C27.3431 35.6675 26.3548 33.1809 24.1409 31.5205L21.8817 34.5328ZM23.5777 38.6093V38.7174H27.3431V38.6093H23.5777ZM23.5777 38.7174C23.5777 39.5093 23.3713 40.0787 23.0284 40.5271L26.0195 42.8144C26.9252 41.63 27.3431 40.2305 27.3431 38.7174H23.5777ZM23.0284 40.5271C22.5361 41.1709 22.1781 41.3708 22.0029 41.4271L23.1552 45.0119C24.3247 44.636 25.2633 43.8034 26.0195 42.8144L23.0284 40.5271ZM17.5825 38.9335C17.5825 38.0835 17.3099 37.2733 16.7409 36.6008L13.8664 39.0331C13.8629 39.0289 13.8558 39.0197 13.8476 39.0056C13.8394 38.9914 13.8321 38.9756 13.8264 38.9598C13.8143 38.9255 13.8171 38.9116 13.8171 38.9335H17.5825ZM16.7959 36.669C16.1205 35.791 15.1451 35.466 14.2231 35.466V39.2314C14.2618 39.2314 14.2076 39.2378 14.1048 39.1933C13.9909 39.1439 13.8853 39.061 13.8113 38.9648L16.7959 36.669ZM14.2231 35.466H9.39682V39.2314H14.2231V35.466ZM7.51411 37.3487V40.6263H11.2795V37.3487H7.51411ZM9.39682 42.509H14.2231V38.7435H9.39682V42.509ZM14.2231 42.509C15.1982 42.509 16.1811 42.1327 16.8356 41.2163L13.7716 39.0277C13.8323 38.9427 13.9316 38.8527 14.0572 38.7941C14.1729 38.7401 14.2444 38.7435 14.2231 38.7435V42.509ZM16.8218 41.2354C17.3143 40.5638 17.5825 39.7802 17.5825 38.9335H13.8171C13.8171 38.9453 13.8162 38.9519 13.8158 38.9545C13.8154 38.957 13.815 38.9583 13.8147 38.9594C13.8146 38.9595 13.8098 38.9753 13.7854 39.0086L16.8218 41.2354ZM14.6193 52.0535C15.6128 52.0535 16.659 51.7027 17.3621 50.7439L14.3257 48.5172C14.3532 48.4796 14.3911 48.4382 14.4395 48.3993C14.4879 48.3604 14.5367 48.3322 14.5797 48.3132C14.6648 48.2757 14.6942 48.2881 14.6193 48.2881V52.0535ZM17.35 50.7602C17.8689 50.0684 18.1588 49.2558 18.1588 48.3699H14.3934C14.3934 48.3965 14.3952 48.4243 14.3377 48.5009L17.35 50.7602ZM18.1588 48.3699V48.3339H14.3934V48.3699H18.1588ZM18.1588 48.3339C18.1588 47.3996 17.821 46.5465 17.1875 45.8643L14.4282 48.4264C14.4338 48.4324 14.4319 48.4314 14.4265 48.4229C14.4209 48.4141 14.4138 48.4011 14.4073 48.3847C14.4009 48.3683 14.397 48.3534 14.3949 48.3421C14.3929 48.331 14.3934 48.3276 14.3934 48.3339H18.1588ZM17.2373 45.9201C16.5396 45.106 15.588 44.7584 14.6193 44.7584V48.5238C14.6616 48.5238 14.6302 48.5304 14.5593 48.5004C14.5249 48.4857 14.4889 48.4656 14.4547 48.4404C14.4206 48.4154 14.3954 48.3904 14.3784 48.3706L17.2373 45.9201ZM14.6193 44.7584H9.39682V48.5238H14.6193V44.7584ZM7.51411 46.6411V50.1708H11.2795V46.6411H7.51411ZM9.39682 52.0535H14.6193V48.2881H9.39682V52.0535ZM52.6032 54.0966L51.5075 52.5656L51.5004 52.5708L52.6032 54.0966ZM33.118 54.0966L32.0151 55.6225L32.0223 55.6277L33.118 54.0966ZM31.2091 35.5479L29.6816 34.4472L29.6786 34.4514L31.2091 35.5479ZM35.9994 31.9461L35.3291 30.1868L35.9994 31.9461ZM49.7219 31.9461L49.0446 33.7028L49.0516 33.7055L49.7219 31.9461ZM54.5121 35.5118L52.9925 36.6232L54.5121 35.5118ZM40.1774 48.9102L38.9881 50.3697L39.001 50.3803L39.0142 50.3906L40.1774 48.9102ZM45.5439 48.9102L46.7332 50.3697L46.7389 50.365L45.5439 48.9102ZM45.5439 38.6453L44.323 40.0785L44.3514 40.1027L44.3807 40.1257L45.5439 38.6453ZM40.1774 38.6093L39.0142 37.1289L39.001 37.1392L38.9881 37.1498L40.1774 38.6093ZM54.3943 45.9568C54.3943 49.1737 53.3518 51.2457 51.5075 52.5656L53.699 55.6277C56.753 53.442 58.1597 50.0874 58.1597 45.9568H54.3943ZM51.5004 52.5708C49.4927 54.0218 46.6792 54.8432 42.8786 54.8432V58.6086C47.1939 58.6086 50.8634 57.6771 53.7061 55.6225L51.5004 52.5708ZM42.8786 54.8432C39.0794 54.8432 36.2491 54.0223 34.2137 52.5656L32.0223 55.6277C34.8852 57.6766 38.562 58.6086 42.8786 58.6086V54.8432ZM34.2209 52.5708C32.4053 51.2585 31.363 49.167 31.363 45.8848H27.5976C27.5976 50.046 28.9804 53.4291 32.0151 55.6225L34.2209 52.5708ZM31.363 45.8848V41.6347H27.5976V45.8848H31.363ZM31.363 41.6347C31.363 39.4842 31.8657 37.8642 32.7396 36.6443L29.6786 34.4514C28.2475 36.4491 27.5976 38.8869 27.5976 41.6347H31.363ZM32.7366 36.6485C33.6821 35.3363 34.9705 34.3528 36.6696 33.7055L35.3291 30.1868C32.9943 31.0762 31.0892 32.4939 29.6816 34.4472L32.7366 36.6485ZM36.6696 33.7055C38.436 33.0326 40.4959 32.6763 42.8786 32.6763V28.9109C40.123 28.9109 37.5966 29.323 35.3291 30.1868L36.6696 33.7055ZM42.8786 32.6763C45.262 32.6763 47.3067 33.0328 49.0446 33.7028L50.3992 30.1895C48.1512 29.3228 45.6337 28.9109 42.8786 28.9109V32.6763ZM49.0516 33.7055C50.7582 34.3556 52.0484 35.3323 52.9925 36.6232L56.0318 34.4004C54.6228 32.4738 52.7195 31.0734 50.3921 30.1868L49.0516 33.7055ZM52.9925 36.6232C53.8858 37.8447 54.3943 39.4487 54.3943 41.5627H58.1597C58.1597 38.8264 57.4916 36.3965 56.0318 34.4004L52.9925 36.6232ZM54.3943 41.5627V45.9568H58.1597V41.5627H54.3943ZM37.3222 46.6411C37.3222 48.0798 37.8211 49.4189 38.9881 50.3697L41.3666 47.4506C41.237 47.345 41.0876 47.1713 41.0876 46.6411H37.3222ZM39.0142 50.3906C40.1108 51.2523 41.4635 51.5853 42.8786 51.5853V47.8199C42.0367 47.8199 41.5885 47.6246 41.3405 47.4298L39.0142 50.3906ZM42.8786 51.5853C44.2892 51.5853 45.6479 51.254 46.7332 50.3697L44.3546 47.4506C44.1433 47.6228 43.7252 47.8199 42.8786 47.8199V51.5853ZM46.7389 50.365C47.9072 49.4053 48.4351 48.0695 48.4351 46.6051H44.6697C44.6697 47.1096 44.5252 47.3105 44.3489 47.4554L46.7389 50.365ZM48.4351 46.6051V40.9144H44.6697V46.6051H48.4351ZM48.4351 40.9144C48.4351 39.451 47.9061 38.107 46.7071 37.1649L44.3807 40.1257C44.5264 40.2402 44.6697 40.4089 44.6697 40.9144H48.4351ZM46.7648 37.2121C45.6785 36.2867 44.3075 35.9342 42.8786 35.9342V39.6996C43.7069 39.6996 44.1127 39.8994 44.323 40.0785L46.7648 37.2121ZM42.8786 35.9342C41.4635 35.9342 40.1108 36.2672 39.0142 37.1289L41.3405 40.0897C41.5885 39.8949 42.0367 39.6996 42.8786 39.6996V35.9342ZM38.9881 37.1498C37.8211 38.1006 37.3222 39.4397 37.3222 40.8784H41.0876C41.0876 40.3482 41.237 40.1745 41.3666 40.0688L38.9881 37.1498ZM37.3222 40.8784V46.6411H41.0876V40.8784H37.3222Z" fill="black"/>
</svg>
