<?xml version="1.0" encoding="utf-8"?>
<!-- Generator: Adobe Illustrator 23.1.1, SVG Export Plug-In . SVG Version: 6.00 Build 0)  -->
<svg version="1.1" xmlns="http://www.w3.org/2000/svg" xmlns:xlink="http://www.w3.org/1999/xlink" x="0px" y="0px"
	 viewBox="0 0 792 1207.07" style="enable-background:new 0 0 792 1207.07;" xml:space="preserve">
<style type="text/css">
	.st0{display:none;}
	.st1{display:inline;}
	.st2{fill:none;stroke:#FF0000;stroke-linecap:round;stroke-linejoin:round;stroke-miterlimit:10;}
	.st3{clip-path:url(#SVGID_10_);fill:none;stroke:#FF0000;stroke-linecap:round;stroke-linejoin:round;stroke-miterlimit:10;}
</style>
<g id="Layer_1" class="st0">
	<g class="st1">
		<g>
			<defs>
				<rect id="SVGID_1_" y="118" width="792" height="612"/>
			</defs>
			<clipPath id="SVGID_2_">
				<use xlink:href="#SVGID_1_"  style="overflow:visible;"/>
			</clipPath>
		</g>
	</g>
	<g class="st1">
		<g>
			<defs>
				<rect id="SVGID_3_" y="241" width="792" height="612"/>
			</defs>
			<clipPath id="SVGID_4_">
				<use xlink:href="#SVGID_3_"  style="overflow:visible;"/>
			</clipPath>
		</g>
	</g>
	<g class="st1">
		<g>
			<defs>
				<rect id="SVGID_5_" y="517.26" width="792" height="612"/>
			</defs>
			<clipPath id="SVGID_6_">
				<use xlink:href="#SVGID_5_"  style="overflow:visible;"/>
			</clipPath>
		</g>
	</g>
	<g class="st1">
		<g>
			<g>
				<defs>
					<rect id="SVGID_7_" y="-119" width="792" height="612"/>
				</defs>
				<clipPath id="SVGID_8_">
					<use xlink:href="#SVGID_7_"  style="overflow:visible;"/>
				</clipPath>
			</g>
		</g>
	</g>
</g>
<g id="Layer_2">
	<path class="st2" d="M361.07,243.19c0-19.57,15.86-35.43,35.43-35.43s35.43,15.86,35.43,35.43h168.66V219.1h8.5v-56.69h-8.5v-24.09
		h-62.36v-8.5h-56.69v8.5h-56.69v-8.5h-56.69v8.5h-56.69v-8.5h-56.69v8.5H192.4v24.09h-8.5v56.69h8.5v24.09H361.07z"/>
	<g>
		<defs>
			<rect id="SVGID_9_" y="517.26" width="792" height="612"/>
		</defs>
		<clipPath id="SVGID_10_">
			<use xlink:href="#SVGID_9_"  style="overflow:visible;"/>
		</clipPath>
		<path class="st3" d="M431.93,836.93c0-3.13,2.54-5.67,5.67-5.67s5.67,2.54,5.67,5.67c0,3.13-2.54,5.67-5.67,5.67
			S431.93,840.06,431.93,836.93z"/>
		<rect x="454.65" y="808.4" class="st3" width="11.34" height="28.35"/>
		<path class="st3" d="M431.93,808.58c0-3.13,2.54-5.67,5.67-5.67s5.67,2.54,5.67,5.67c0,3.13-2.54,5.67-5.67,5.67
			S431.93,811.71,431.93,808.58z"/>
		<path class="st3" d="M293.04,836.93c0-3.13,2.54-5.67,5.67-5.67c3.13,0,5.67,2.54,5.67,5.67c0,3.13-2.54,5.67-5.67,5.67
			C295.57,842.6,293.04,840.06,293.04,836.93z"/>
		<rect x="310.04" y="792.99" class="st3" width="116.22" height="59.53"/>
		
			<ellipse transform="matrix(0.2298 -0.9732 0.9732 0.2298 -556.8751 913.5213)" class="st3" cx="298.7" cy="808.58" rx="5.67" ry="5.67"/>
	</g>
	<polygon class="st2" points="609.1,522.41 600.59,522.41 600.59,579.1 609.1,579.1 609.1,603.19 183.9,603.19 183.9,579.1 
		192.41,579.1 192.41,522.41 183.9,522.41 183.9,498.31 254.77,498.31 254.77,489.81 311.46,489.81 311.46,498.31 368.15,498.31 
		368.15,489.81 424.85,489.81 424.85,498.31 481.54,498.31 481.54,489.81 538.23,489.81 538.23,498.31 609.1,498.31 	"/>
	<polygon class="st2" points="609.1,399.41 600.59,399.41 600.59,456.1 609.1,456.1 609.1,480.19 183.9,480.19 183.9,456.1 
		192.41,456.1 192.41,399.41 183.9,399.41 183.9,375.31 254.77,375.31 254.77,366.81 311.46,366.81 311.46,375.31 368.15,375.31 
		368.15,366.81 424.85,366.81 424.85,375.31 481.54,375.31 481.54,366.81 538.23,366.81 538.23,375.31 609.1,375.31 	"/>
	<polygon class="st2" points="183.9,964.49 192.41,964.49 192.41,907.79 183.9,907.79 183.9,851.1 192.41,851.1 192.41,794.41 
		183.9,794.41 183.9,737.72 192.41,737.72 192.41,681.02 183.9,681.02 183.9,610.16 254.77,610.16 254.77,618.66 311.46,618.66 
		311.46,610.16 368.15,610.16 368.15,618.66 424.85,618.66 424.85,610.16 481.54,610.16 481.54,618.66 538.23,618.66 538.23,610.16 
		609.1,610.16 609.1,681.02 600.59,681.02 600.59,737.72 609.1,737.72 609.1,794.41 600.59,794.41 600.59,851.1 609.1,851.1 
		609.1,907.79 600.59,907.79 600.59,964.49 609.1,964.49 609.1,1035.35 538.23,1035.35 538.23,1026.85 481.54,1026.85 
		481.54,1035.35 424.85,1035.35 424.85,1026.85 368.15,1026.85 368.15,1035.35 311.46,1035.35 311.46,1026.85 254.77,1026.85 
		254.77,1035.35 183.9,1035.35 	"/>
	<g>
		<path class="st2" d="M234.93,308.33c0-6.26,5.08-11.34,11.34-11.34c6.26,0,11.34,5.08,11.34,11.34c0,6.26-5.08,11.34-11.34,11.34
			C240,319.67,234.93,314.6,234.93,308.33z"/>
		
			<ellipse transform="matrix(0.3827 -0.9239 0.9239 0.3827 39.2591 742.6617)" class="st2" cx="575.37" cy="341.95" rx="4.25" ry="4.25"/>
		
			<ellipse transform="matrix(0.2298 -0.9732 0.9732 0.2298 -79.8039 583.0695)" class="st2" cx="328.47" cy="341.95" rx="4.25" ry="4.25"/>
		
			<ellipse transform="matrix(0.3827 -0.9239 0.9239 0.3827 99.1263 702.6598)" class="st2" cx="575.37" cy="277.15" rx="4.25" ry="4.25"/>
		
			<ellipse transform="matrix(0.2298 -0.9732 0.9732 0.2298 -16.7376 533.1577)" class="st2" cx="328.47" cy="277.15" rx="4.25" ry="4.25"/>
		<polygon class="st2" points="600.59,338.1 600.59,362.19 192.41,362.19 192.41,338.1 183.9,338.1 183.9,281.41 192.41,281.41 
			192.41,257.31 254.77,257.31 254.77,248.81 311.46,248.81 311.46,257.31 368.15,257.31 368.15,248.81 424.85,248.81 
			424.85,257.31 481.54,257.31 481.54,248.81 538.23,248.81 538.23,257.31 600.59,257.31 600.59,281.41 609.1,281.41 609.1,338.1 		
			"/>
		<path d="M242.45,269.53l-0.01,0.21c-0.1,0.18-0.24,0.31-0.44,0.4c-0.2,0.08-0.43,0.13-0.7,0.13c-0.41,0-0.76-0.1-1.07-0.31
			c-0.31-0.21-0.55-0.5-0.72-0.88c-0.17-0.38-0.26-0.81-0.26-1.31v-0.01c0-0.55,0.09-1.02,0.28-1.41c0.19-0.39,0.46-0.69,0.82-0.89
			c0.36-0.2,0.79-0.3,1.29-0.3s0.93,0.1,1.28,0.31c0.36,0.21,0.63,0.51,0.81,0.9c0.18,0.4,0.28,0.87,0.28,1.42v0.01
			c0,0.3-0.04,0.63-0.12,0.97c-0.08,0.35-0.19,0.69-0.33,1.03c-0.02,0.05-0.05,0.1-0.07,0.15c-0.02,0.05-0.05,0.1-0.08,0.15
			l-1.82,3.65h-1.29L242.45,269.53z M242.51,268.79c0.2-0.25,0.31-0.61,0.31-1.07v-0.01c0-0.45-0.1-0.8-0.31-1.04
			c-0.21-0.25-0.5-0.37-0.87-0.37c-0.38,0-0.67,0.12-0.88,0.37c-0.21,0.25-0.31,0.6-0.31,1.05v0.01c0,0.46,0.1,0.82,0.31,1.07
			c0.21,0.25,0.5,0.38,0.88,0.38C242.01,269.17,242.3,269.05,242.51,268.79"/>
		<polygon points="244.89,265.24 246.19,265.24 248.23,271.92 250.28,265.24 251.58,265.24 248.8,273.76 247.67,273.76 		"/>
		<rect x="229.78" y="277.57" width="32.96" height="2"/>
		<rect x="229.78" y="285.37" width="6" height="2"/>
		<rect x="242.77" y="285.37" width="6.99" height="2"/>
		<rect x="256.74" y="285.37" width="6" height="2"/>
		<path d="M244.13,345.99v-1c4.02,0,7.28-3.27,7.28-7.28c0-4.02-3.27-7.29-7.28-7.29v-1c4.57,0,8.28,3.72,8.28,8.29
			C252.41,342.27,248.7,345.99,244.13,345.99"/>
		<rect x="251.91" y="337.2" width="6.96" height="1"/>
		<path d="M248.09,337.7c0,2.19-1.77,3.96-3.96,3.96c-2.19,0-3.96-1.77-3.96-3.96c0-2.18,1.77-3.96,3.96-3.96
			C246.32,333.75,248.09,335.52,248.09,337.7"/>
		<rect x="233.65" y="337.2" width="10.02" height="1"/>
		<rect x="265.8" y="337.2" width="9.11" height="1"/>
		<rect x="218.48" y="337.2" width="9.11" height="1"/>
		<rect x="222.53" y="333.14" width="1" height="9.11"/>
		<path d="M477.98,337.56h1.6v8.52h-1.6V337.56z M478.62,341.11h2.97c0.16,0,0.31-0.04,0.43-0.12s0.22-0.2,0.29-0.35
			c0.07-0.15,0.1-0.33,0.11-0.53c0-0.2-0.03-0.38-0.1-0.53c-0.07-0.15-0.16-0.27-0.29-0.35s-0.27-0.12-0.44-0.12h-2.97v-1.55h3.09
			c0.47,0,0.88,0.11,1.24,0.32c0.36,0.21,0.63,0.51,0.83,0.89c0.2,0.39,0.29,0.83,0.29,1.34c0,0.51-0.1,0.95-0.29,1.34
			c-0.19,0.38-0.47,0.68-0.83,0.89c-0.36,0.21-0.77,0.32-1.23,0.32h-3.09V341.11z M480.41,342.4l1.72-0.27l2.3,3.96h-1.95
			L480.41,342.4z"/>
		<path d="M486.48,345.86c-0.39-0.21-0.69-0.51-0.9-0.91c-0.2-0.4-0.31-0.87-0.31-1.43v-0.99c0-0.55,0.1-1.02,0.31-1.42
			c0.2-0.39,0.5-0.69,0.9-0.9c0.39-0.2,0.87-0.31,1.42-0.31c0.55,0,1.03,0.1,1.42,0.31c0.39,0.21,0.69,0.5,0.9,0.9
			c0.2,0.39,0.31,0.87,0.31,1.42v1.01c0,0.55-0.1,1.03-0.31,1.42c-0.2,0.39-0.5,0.69-0.9,0.9c-0.39,0.21-0.87,0.31-1.42,0.31
			C487.34,346.17,486.87,346.07,486.48,345.86 M488.65,344.34c0.18-0.19,0.27-0.46,0.27-0.8v-1.01c0-0.34-0.09-0.6-0.27-0.79
			c-0.18-0.19-0.43-0.28-0.76-0.28c-0.32,0-0.57,0.09-0.75,0.28c-0.18,0.19-0.27,0.45-0.27,0.79v1.01c0,0.34,0.09,0.61,0.26,0.8
			c0.18,0.19,0.43,0.28,0.75,0.28S488.47,344.53,488.65,344.34"/>
		<path d="M491.99,337.57h1.61v8.52h-1.61V337.57z M494.09,345.9c-0.26-0.18-0.45-0.44-0.57-0.77l0.08-1.39
			c0,0.2,0.04,0.37,0.1,0.51c0.07,0.14,0.17,0.25,0.31,0.32c0.14,0.07,0.3,0.11,0.49,0.11c0.3,0,0.53-0.1,0.7-0.3
			c0.17-0.2,0.25-0.48,0.25-0.84v-0.97c0-0.37-0.08-0.66-0.25-0.86c-0.17-0.21-0.4-0.31-0.7-0.31c-0.19,0-0.35,0.04-0.49,0.11
			c-0.14,0.08-0.24,0.19-0.31,0.33c-0.07,0.14-0.1,0.32-0.1,0.53l-0.12-1.35c0.16-0.36,0.38-0.63,0.65-0.82
			c0.27-0.19,0.56-0.29,0.89-0.29c0.43,0,0.8,0.1,1.1,0.31c0.31,0.21,0.54,0.51,0.7,0.91c0.16,0.4,0.24,0.88,0.24,1.44v0.97
			c0,0.55-0.08,1.03-0.24,1.42c-0.16,0.39-0.39,0.69-0.7,0.9c-0.31,0.21-0.67,0.31-1.1,0.31
			C494.65,346.17,494.34,346.08,494.09,345.9"/>
		<path d="M499.54,345.86c-0.39-0.21-0.69-0.51-0.9-0.91c-0.2-0.4-0.31-0.87-0.31-1.43v-0.99c0-0.55,0.1-1.02,0.31-1.42
			c0.2-0.39,0.5-0.69,0.9-0.9c0.39-0.2,0.87-0.31,1.42-0.31c0.55,0,1.03,0.1,1.42,0.31c0.39,0.21,0.69,0.5,0.9,0.9
			c0.2,0.39,0.31,0.87,0.31,1.42v1.01c0,0.55-0.1,1.03-0.31,1.42c-0.2,0.39-0.5,0.69-0.9,0.9c-0.39,0.21-0.87,0.31-1.42,0.31
			C500.41,346.17,499.94,346.07,499.54,345.86 M501.72,344.34c0.18-0.19,0.27-0.46,0.27-0.8v-1.01c0-0.34-0.09-0.6-0.27-0.79
			c-0.18-0.19-0.43-0.28-0.76-0.28c-0.32,0-0.57,0.09-0.75,0.28c-0.18,0.19-0.27,0.45-0.27,0.79v1.01c0,0.34,0.09,0.61,0.26,0.8
			c0.18,0.19,0.43,0.28,0.75,0.28S501.54,344.53,501.72,344.34"/>
		<path d="M505.82,345.86c-0.31-0.21-0.54-0.51-0.7-0.9c-0.16-0.39-0.24-0.87-0.24-1.42v-0.97c0-0.56,0.08-1.04,0.24-1.44
			c0.16-0.4,0.39-0.7,0.7-0.91c0.31-0.21,0.67-0.31,1.1-0.31c0.32,0,0.62,0.1,0.89,0.29c0.27,0.19,0.48,0.47,0.65,0.82l-0.12,1.35
			c0-0.21-0.04-0.38-0.11-0.53c-0.07-0.15-0.17-0.26-0.31-0.33c-0.14-0.08-0.3-0.11-0.49-0.11c-0.3,0-0.54,0.1-0.7,0.31
			c-0.17,0.2-0.25,0.49-0.25,0.86v0.97c0,0.36,0.08,0.64,0.25,0.84c0.17,0.2,0.4,0.3,0.7,0.3c0.19,0,0.35-0.04,0.49-0.11
			c0.13-0.07,0.24-0.18,0.31-0.32c0.07-0.14,0.11-0.31,0.11-0.51l0.08,1.39c-0.12,0.33-0.32,0.59-0.57,0.77
			c-0.26,0.18-0.57,0.27-0.92,0.27C506.49,346.17,506.13,346.07,505.82,345.86 M508.34,337.57h1.61v8.52h-1.61V337.57z"/>
		<path d="M511.72,345.71c-0.32-0.31-0.48-0.78-0.48-1.42c0-0.6,0.18-1.05,0.54-1.35c0.36-0.3,0.9-0.45,1.63-0.45h1.52l0.08,1.22
			h-1.6c-0.24,0-0.42,0.05-0.54,0.14c-0.12,0.1-0.18,0.24-0.18,0.44c0,0.2,0.08,0.35,0.23,0.44c0.15,0.1,0.38,0.14,0.69,0.14
			c0.43,0,0.75-0.05,0.96-0.15c0.21-0.1,0.31-0.25,0.31-0.46l0.12,0.89c-0.02,0.22-0.12,0.4-0.3,0.56c-0.18,0.15-0.4,0.27-0.67,0.34
			c-0.27,0.08-0.55,0.11-0.85,0.11C512.52,346.17,512.04,346.02,511.72,345.71 M514.87,342.23c0-0.28-0.09-0.5-0.28-0.65
			c-0.19-0.15-0.45-0.23-0.8-0.23c-0.23,0-0.45,0.04-0.67,0.11c-0.22,0.07-0.42,0.18-0.59,0.31l-1-0.98
			c0.24-0.28,0.56-0.49,0.96-0.65c0.4-0.15,0.84-0.23,1.32-0.23c0.53,0,0.99,0.09,1.36,0.27c0.38,0.18,0.66,0.44,0.86,0.77
			c0.2,0.34,0.3,0.74,0.3,1.22v3.91h-1.46V342.23z"/>
		<path d="M518.68,345.86c-0.31-0.21-0.54-0.51-0.7-0.9c-0.16-0.39-0.24-0.87-0.24-1.42v-0.97c0-0.56,0.08-1.04,0.24-1.44
			c0.16-0.4,0.39-0.7,0.7-0.91c0.31-0.21,0.67-0.31,1.1-0.31c0.32,0,0.62,0.1,0.89,0.29c0.27,0.19,0.48,0.47,0.65,0.82l-0.12,1.35
			c0-0.21-0.04-0.38-0.11-0.53c-0.07-0.15-0.17-0.26-0.31-0.33c-0.13-0.08-0.3-0.11-0.49-0.11c-0.3,0-0.53,0.1-0.7,0.31
			c-0.17,0.2-0.25,0.49-0.25,0.86v0.97c0,0.36,0.08,0.64,0.25,0.84c0.17,0.2,0.4,0.3,0.7,0.3c0.19,0,0.36-0.04,0.49-0.11
			c0.14-0.07,0.24-0.18,0.31-0.32c0.07-0.14,0.11-0.31,0.11-0.51l0.08,1.39c-0.12,0.33-0.32,0.59-0.57,0.77
			c-0.26,0.18-0.56,0.27-0.92,0.27C519.35,346.17,518.98,346.07,518.68,345.86 M521.19,337.57h1.6v8.52h-1.6V337.57z"/>
		<path d="M524.57,345.71c-0.32-0.31-0.48-0.78-0.48-1.42c0-0.6,0.18-1.05,0.54-1.35c0.36-0.3,0.9-0.45,1.63-0.45h1.52l0.08,1.22
			h-1.6c-0.24,0-0.42,0.05-0.54,0.14c-0.12,0.1-0.18,0.24-0.18,0.44c0,0.2,0.08,0.35,0.23,0.44c0.15,0.1,0.38,0.14,0.69,0.14
			c0.43,0,0.75-0.05,0.96-0.15c0.21-0.1,0.31-0.25,0.31-0.46l0.12,0.89c-0.02,0.22-0.12,0.4-0.3,0.56c-0.18,0.15-0.4,0.27-0.67,0.34
			c-0.27,0.08-0.55,0.11-0.85,0.11C525.38,346.17,524.89,346.02,524.57,345.71 M527.73,342.23c0-0.28-0.09-0.5-0.28-0.65
			c-0.19-0.15-0.45-0.23-0.8-0.23c-0.23,0-0.45,0.04-0.67,0.11c-0.22,0.07-0.42,0.18-0.59,0.31l-1-0.98
			c0.24-0.28,0.56-0.49,0.96-0.65c0.4-0.15,0.84-0.23,1.32-0.23c0.53,0,0.99,0.09,1.36,0.27c0.38,0.18,0.66,0.44,0.86,0.77
			c0.2,0.34,0.3,0.74,0.3,1.22v3.91h-1.46V342.23z"/>
		<polygon points="533.23,337.57 534.88,337.57 536.69,343.25 538.5,337.57 540.15,337.57 537.32,346.09 536.06,346.09 		"/>
		<path d="M541.47,345.87c-0.37-0.2-0.66-0.49-0.85-0.88c-0.2-0.39-0.29-0.85-0.29-1.39v-0.01c0-0.31,0.04-0.64,0.11-0.98
			c0.08-0.34,0.18-0.69,0.33-1.04c0.02-0.06,0.05-0.12,0.07-0.18c0.03-0.06,0.05-0.11,0.08-0.17l1.73-3.67h1.82l-2.05,4.25
			l-0.4-0.21c0.1-0.18,0.24-0.33,0.43-0.43c0.19-0.1,0.41-0.15,0.66-0.15c0.47,0,0.87,0.1,1.2,0.3c0.33,0.2,0.59,0.49,0.76,0.87
			c0.17,0.38,0.26,0.84,0.26,1.37v0.01c0,0.55-0.1,1.02-0.29,1.41c-0.19,0.39-0.48,0.69-0.85,0.89c-0.37,0.2-0.82,0.3-1.35,0.3
			C542.3,346.17,541.85,346.07,541.47,345.87 M543.48,344.38c0.15-0.17,0.23-0.4,0.23-0.71v-0.01c0-0.35-0.08-0.62-0.23-0.81
			c-0.15-0.19-0.37-0.29-0.66-0.29c-0.28,0-0.5,0.1-0.65,0.29c-0.16,0.19-0.23,0.46-0.23,0.81v0.01c0,0.3,0.08,0.54,0.23,0.7
			c0.15,0.16,0.37,0.25,0.65,0.25C543.1,344.63,543.32,344.54,543.48,344.38"/>
	</g>
</g>
</svg>
